<svg xmlns="http://www.w3.org/2000/svg" width="10.653" height="18" viewBox="0 0 10.653 18">
  <path id="sw-bolt-small" d="M16.158,10.565l.832-.532a1.978,1.978,0,0,1,.151,1.683,12.449,12.449,0,0,1-.643,1.551l-.029.063-2.7,5.827-.022.048c-.166.358-.323.7-.467.939a1.856,1.856,0,0,1-.359.448,1.133,1.133,0,0,1-1.809-.4,1.855,1.855,0,0,1-.138-.557c-.03-.279-.03-.654-.03-1.048V14.652h-.928a12.447,12.447,0,0,1-1.677-.068,1.979,1.979,0,0,1-1.464-.844m9.282-3.176L6.876,13.741m9.282-3.176.832-.532a1.978,1.978,0,0,0-1.464-.844,12.449,12.449,0,0,0-1.677-.068h-.928V5.188c0-.394,0-.769-.03-1.048a1.855,1.855,0,0,0-.138-.557,1.133,1.133,0,0,0-1.809-.4,1.856,1.856,0,0,0-.359.448c-.144.241-.3.581-.467.939l-.022.048L7.4,10.445l-.029.063a12.448,12.448,0,0,0-.643,1.551,1.978,1.978,0,0,0,.151,1.683m9.282-3.176L6.876,13.741M12.3,4.609l0,0Zm-1.383-.3v0Zm.642,14.859,0,0Zm1.383.3v0Z" transform="translate(-6.607 -2.887)" fill="#e4e4e4"/>
</svg>
