<svg id="Group_198" data-name="Group 198" xmlns="http://www.w3.org/2000/svg" xmlns:xlink="http://www.w3.org/1999/xlink" width="20.048" height="225.706" viewBox="0 0 20.048 225.706">
  <defs>
    <clipPath id="clip-path">
      <rect id="Rectangle_170" data-name="Rectangle 170" width="20.048" height="225.706" fill="none"/>
    </clipPath>
  </defs>
  <g id="Group_197" data-name="Group 197" clip-path="url(#clip-path)">
    <path id="Path_124" data-name="Path 124" d="M20.048,216.046a9.652,9.652,0,0,1-2.632,6.846,9.62,9.62,0,0,1-7.392,2.814,9.457,9.457,0,0,1-7.393-2.912A10.193,10.193,0,0,1,0,215.71a9.887,9.887,0,0,1,1.778-6.062,7.517,7.517,0,0,1,4.914-2.954l.9,4.368a4.56,4.56,0,0,0-2.772,1.61,4.753,4.753,0,0,0-1.036,3.1,5.151,5.151,0,0,0,1.666,4,6.563,6.563,0,0,0,4.578,1.511,6.511,6.511,0,0,0,4.564-1.511,5.643,5.643,0,0,0,.672-7.168,3.676,3.676,0,0,0-2.575-1.485v5.321H9.156V207.03H19.824v4.032H17.78a4.241,4.241,0,0,1,1.653,1.974,7.213,7.213,0,0,1,.615,3.01" fill="#040504"/>
    <path id="Path_125" data-name="Path 125" d="M19.825,203.67H.225V190.2H4v9.044H7.588v-7.168H11.4v7.168h4.62v-9.352h3.808Z" fill="#040504"/>
    <path id="Path_126" data-name="Path 126" d="M19.825,182.839H4v5.768H.225V172.675H4v5.74H19.825Z" fill="#040504"/>
    <rect id="Rectangle_169" data-name="Rectangle 169" width="19.6" height="4.424" transform="translate(0.225 159.403)" fill="#040504"/>
    <path id="Path_127" data-name="Path 127" d="M19.825,155.875H.225v-4.4l12.6-7.616H.225v-4.116h19.6v4.4l-12.6,7.615h12.6Z" fill="#040504"/>
    <path id="Path_128" data-name="Path 128" d="M20.048,120.511a9.918,9.918,0,0,1-2.632,7.028,9.6,9.6,0,0,1-7.392,2.828,9.584,9.584,0,0,1-7.378-2.842A9.9,9.9,0,0,1,0,120.511a9.735,9.735,0,0,1,1.82-6.062,7.094,7.094,0,0,1,4.872-2.813l.924,4.4a4.664,4.664,0,0,0-2.8,1.567,4.428,4.428,0,0,0-1.036,2.94,5.039,5.039,0,0,0,1.638,3.851,6.5,6.5,0,0,0,4.606,1.525,6.489,6.489,0,0,0,4.592-1.511,5.047,5.047,0,0,0,1.624-3.865,4.561,4.561,0,0,0-.91-2.883,4.107,4.107,0,0,0-2.506-1.512l1.008-4.453a7.568,7.568,0,0,1,4.565,3.024,9.758,9.758,0,0,1,1.651,5.8" fill="#040504"/>
    <path id="Path_129" data-name="Path 129" d="M20.048,99.623a9.815,9.815,0,0,1-2.842,7.224,9.708,9.708,0,0,1-7.182,2.857,9.711,9.711,0,0,1-7.182-2.857A9.819,9.819,0,0,1,0,99.623,9.741,9.741,0,0,1,10.024,89.6,9.74,9.74,0,0,1,20.048,99.623M14.477,103.7a5.522,5.522,0,0,0,0-8.092,6.425,6.425,0,0,0-4.453-1.582,6.433,6.433,0,0,0-4.465,1.6,5.49,5.49,0,0,0-.015,8.078,6.459,6.459,0,0,0,4.48,1.582,6.421,6.421,0,0,0,4.453-1.582" fill="#040504"/>
    <path id="Path_130" data-name="Path 130" d="M19.825,86.939H.225v-4.4l12.6-7.616H.225V70.811h19.6v4.4l-12.6,7.616h12.6Z" fill="#040504"/>
    <path id="Path_131" data-name="Path 131" d="M19.825,62.888H4v5.768H.225V52.724H4v5.74H19.825Z" fill="#040504"/>
    <path id="Path_132" data-name="Path 132" d="M19.825,40.264l-4.032,1.428v7l4.032,1.428v4.592l-19.6-7.42V43.12l19.6-7.42ZM12.1,47.348V43.036L6.021,45.192Z" fill="#040504"/>
    <path id="Path_133" data-name="Path 133" d="M20.048,25.648a9.92,9.92,0,0,1-2.632,7.028A9.6,9.6,0,0,1,10.024,35.5a9.584,9.584,0,0,1-7.378-2.842A9.9,9.9,0,0,1,0,25.648a9.735,9.735,0,0,1,1.82-6.062,7.1,7.1,0,0,1,4.872-2.814l.924,4.4a4.665,4.665,0,0,0-2.8,1.568,4.424,4.424,0,0,0-1.036,2.94,5.036,5.036,0,0,0,1.638,3.85,6.5,6.5,0,0,0,4.606,1.526,6.485,6.485,0,0,0,4.592-1.512,5.045,5.045,0,0,0,1.624-3.864,4.564,4.564,0,0,0-.91-2.884,4.116,4.116,0,0,0-2.506-1.512l1.008-4.452A7.568,7.568,0,0,1,18.4,19.852a9.756,9.756,0,0,1,1.651,5.8" fill="#040504"/>
    <path id="Path_134" data-name="Path 134" d="M19.825,10.164H4v5.768H.225V0H4V5.74H19.825Z" fill="#040504"/>
  </g>
</svg>
