<svg xmlns="http://www.w3.org/2000/svg" width="115.43" height="46.5" viewBox="0 0 115.43 46.5">
  <g id="sw-gm-capital-logo" transform="translate(-983 -1931.579)">
    <g id="Group_2" data-name="Group 2" transform="translate(1034.52 1931.579)">
      <path id="Path_2" data-name="Path 2" d="M65.918,9.268H58.3a5.922,5.922,0,0,0-5.561-2.9c-4.431,0-7.372,3.143-7.372,8.059,0,5.239,2.982,8.3,7.937,8.3a6.777,6.777,0,0,0,6.85-5H51.413V12.653H66.4V19.06a13.854,13.854,0,0,1-13.619,9.75c-8.462,0-14.428-5.922-14.428-14.385S44.28,0,52.74,0c6.77,0,11.687,3.466,13.178,9.268" transform="translate(-38.355)" fill="#fff"/>
      <path id="Path_3" data-name="Path 3" d="M62.085.24h8.14l7.937,19.584L86.019.24h8.1V28.527H87.229V11.564L80.9,28.527H75.342L68.975,11.522V28.527H62.085Z" transform="translate(-30.21 0.082)" fill="#fff"/>
      <path id="Path_4" data-name="Path 4" d="M42.44,25.574a3.617,3.617,0,0,1,3.842,2.705H44.42a1.945,1.945,0,0,0-1.98-1.285c-1.392,0-2.314,1-2.314,2.778s.923,2.793,2.314,2.793a1.9,1.9,0,0,0,1.98-1.285h1.862a3.735,3.735,0,0,1-3.842,2.7,3.937,3.937,0,0,1-4.085-4.211,3.933,3.933,0,0,1,4.085-4.2" transform="translate(-38.355 8.778)" fill="#fff"/>
      <path id="Path_5" data-name="Path 5" d="M50.551,25.575A3.577,3.577,0,0,1,53.44,26.89V25.708h1.738v8.143H53.44V32.638a3.616,3.616,0,0,1-2.92,1.346,3.973,3.973,0,0,1-3.9-4.242,3.914,3.914,0,0,1,3.932-4.167m.363,1.463a2.524,2.524,0,0,0-2.525,2.7,2.59,2.59,0,0,0,2.525,2.779,2.556,2.556,0,0,0,2.527-2.75,2.551,2.551,0,0,0-2.527-2.733" transform="translate(-35.519 8.778)" fill="#fff"/>
      <path id="Path_6" data-name="Path 6" d="M60.817,25.575a3.9,3.9,0,0,1,3.917,4.167,3.967,3.967,0,0,1-3.917,4.242,3.8,3.8,0,0,1-2.9-1.315v5.053H56.19V25.708h1.723v1.2a3.667,3.667,0,0,1,2.9-1.33m-.377,1.463a2.559,2.559,0,0,0-2.527,2.733,2.564,2.564,0,0,0,2.527,2.75,2.593,2.593,0,0,0,2.54-2.779,2.527,2.527,0,0,0-2.54-2.7" transform="translate(-32.234 8.778)" fill="#fff"/>
      <path id="Path_7" data-name="Path 7" d="M65.162,24.344a1.1,1.1,0,1,1,1.1,1.077,1.08,1.08,0,0,1-1.1-1.077m.227,2.157h1.723v8.143H65.389Z" transform="translate(-29.154 7.985)" fill="#fff"/>
      <path id="Path_8" data-name="Path 8" d="M70.268,27.566h-.985V26.192h.985V24.166h1.738v2.026h2.028v1.374H72.006v4.507c0,.606.242.858.968.858h1.06v1.4H72.672c-1.482,0-2.4-.607-2.4-2.262Z" transform="translate(-27.74 8.294)" fill="#fff"/>
      <path id="Path_9" data-name="Path 9" d="M79.014,25.575A3.577,3.577,0,0,1,81.9,26.89V25.708h1.738v8.143H81.9V32.638a3.616,3.616,0,0,1-2.92,1.346,3.973,3.973,0,0,1-3.9-4.242,3.914,3.914,0,0,1,3.932-4.167m.363,1.463a2.524,2.524,0,0,0-2.525,2.7,2.59,2.59,0,0,0,2.525,2.779,2.556,2.556,0,0,0,2.527-2.75,2.551,2.551,0,0,0-2.527-2.733" transform="translate(-25.749 8.778)" fill="#fff"/>
      <rect id="Rectangle_20" data-name="Rectangle 20" width="1.723" height="10.935" transform="translate(62.186 31.693)" fill="#fff"/>
    </g>
    <g id="Group_3" data-name="Group 3" transform="translate(983 1932.478)">
      <path id="Path_10" data-name="Path 10" d="M32.1,20.908a1.222,1.222,0,0,1-.868-1.165c.078-.52.7-.827,1.174-.856a1.362,1.362,0,0,1,1.353,1.2,1.379,1.379,0,0,1-1.659.823" transform="translate(10.718 5.583)" fill="#fff"/>
      <path id="Path_11" data-name="Path 11" d="M31.054,24.01a1.246,1.246,0,0,1-.6-1.316,1.214,1.214,0,0,1,1.318-.594,1.381,1.381,0,0,1,1.08,1.459,1.369,1.369,0,0,1-1.8.451" transform="translate(10.439 6.681)" fill="#fff"/>
      <path id="Path_12" data-name="Path 12" d="M29.367,26.826a1.22,1.22,0,0,1-.289-1.4,1.184,1.184,0,0,1,1.4-.312,1.408,1.408,0,0,1,.763,1.662,1.4,1.4,0,0,1-1.872.052" transform="translate(9.94 7.688)" fill="#fff"/>
      <path id="Path_13" data-name="Path 13" d="M27.14,29.237a1.022,1.022,0,0,1,1.443-1.445,1.439,1.439,0,0,1,.412,1.8,1.443,1.443,0,0,1-1.855-.353" transform="translate(9.235 8.561)" fill="#fff"/>
      <path id="Path_14" data-name="Path 14" d="M24.462,31.135a1.175,1.175,0,0,1,.31-1.4,1.224,1.224,0,0,1,1.4.285,1.4,1.4,0,0,1,.02,1.832,1.422,1.422,0,0,1-1.733-.72" transform="translate(8.363 9.268)" fill="#fff"/>
      <path id="Path_15" data-name="Path 15" d="M21.453,32.442a1.2,1.2,0,0,1,.591-1.318,1.255,1.255,0,0,1,1.318.591,1.368,1.368,0,0,1-.372,1.778,1.4,1.4,0,0,1-1.537-1.052" transform="translate(7.357 9.769)" fill="#fff"/>
      <path id="Path_16" data-name="Path 16" d="M18.415,33.055a1.207,1.207,0,0,1,.842-1.174,1.251,1.251,0,0,1,1.174.846,1.361,1.361,0,0,1-.721,1.663,1.391,1.391,0,0,1-1.295-1.335" transform="translate(6.32 10.041)" fill="#fff"/>
      <path id="Path_17" data-name="Path 17" d="M15.142,33.037c.118-.466.544-1.007,1.071-.982s.895.615.971,1.083A1.364,1.364,0,0,1,16.131,34.6a1.381,1.381,0,0,1-.989-1.568" transform="translate(5.186 10.103)" fill="#fff"/>
      <path id="Path_18" data-name="Path 18" d="M11.951,32.323A1.244,1.244,0,0,1,13.2,31.59a1.223,1.223,0,0,1,.725,1.255,1.376,1.376,0,0,1-1.339,1.221,1.371,1.371,0,0,1-.637-1.742" transform="translate(4.062 9.936)" fill="#fff"/>
      <path id="Path_19" data-name="Path 19" d="M8.986,30.934a1.235,1.235,0,0,1,1.367-.438,1.2,1.2,0,0,1,.454,1.365,1.4,1.4,0,0,1-1.574.924,1.384,1.384,0,0,1-.247-1.851" transform="translate(2.998 9.543)" fill="#fff"/>
      <path id="Path_20" data-name="Path 20" d="M6.378,28.96A1.176,1.176,0,0,1,7.8,28.834a1.165,1.165,0,0,1,.167,1.413,1.43,1.43,0,0,1-1.744.59,1.427,1.427,0,0,1,.159-1.876" transform="translate(2.041 8.934)" fill="#fff"/>
      <path id="Path_21" data-name="Path 21" d="M4.237,26.488a1.167,1.167,0,0,1,1.417.169,1.2,1.2,0,0,1-.136,1.42,1.416,1.416,0,0,1-1.825.212,1.43,1.43,0,0,1,.544-1.8" transform="translate(1.23 8.139)" fill="#fff"/>
      <path id="Path_22" data-name="Path 22" d="M2.733,23.785a1.177,1.177,0,0,1,1.361.445,1.224,1.224,0,0,1-.42,1.367,1.4,1.4,0,0,1-1.825-.157,1.422,1.422,0,0,1,.885-1.655" transform="translate(0.627 7.247)" fill="#fff"/>
      <path id="Path_23" data-name="Path 23" d="M1.761,20.666a1.2,1.2,0,0,1,1.252.717A1.256,1.256,0,0,1,2.3,22.636a1.367,1.367,0,0,1-1.734-.544,1.4,1.4,0,0,1,1.2-1.427" transform="translate(0.193 6.194)" fill="#fff"/>
      <path id="Path_24" data-name="Path 24" d="M1.46,17.409c.476.07,1.057.439,1.084.964s-.523.952-.978,1.077A1.364,1.364,0,0,1,0,18.552a1.382,1.382,0,0,1,1.46-1.143" transform="translate(0 5.073)" fill="#fff"/>
      <path id="Path_25" data-name="Path 25" d="M1.831,14.159c.442.165.944.65.862,1.169a1.223,1.223,0,0,1-1.175.85,1.371,1.371,0,0,1-1.349-1.2,1.371,1.371,0,0,1,1.662-.814" transform="translate(0.058 3.937)" fill="#fff"/>
      <path id="Path_26" data-name="Path 26" d="M2.88,11.067a1.247,1.247,0,0,1,.582,1.318,1.2,1.2,0,0,1-1.315.588,1.39,1.39,0,0,1-1.077-1.467,1.377,1.377,0,0,1,1.811-.439" transform="translate(0.367 2.838)" fill="#fff"/>
      <path id="Path_27" data-name="Path 27" d="M4.548,8.27a1.2,1.2,0,0,1,.277,1.4,1.177,1.177,0,0,1-1.4.308,1.418,1.418,0,0,1-.758-1.671A1.41,1.41,0,0,1,4.548,8.27" transform="translate(0.904 1.824)" fill="#fff"/>
      <path id="Path_28" data-name="Path 28" d="M6.634,6a1.169,1.169,0,0,1-.012,1.422A1.164,1.164,0,0,1,5.2,7.458a1.431,1.431,0,0,1-.418-1.792A1.427,1.427,0,0,1,6.634,6" transform="translate(1.592 0.98)" fill="#fff"/>
      <path id="Path_29" data-name="Path 29" d="M9.283,4.113a1.167,1.167,0,0,1-.306,1.394,1.2,1.2,0,0,1-1.4-.273A1.415,1.415,0,0,1,7.544,3.4a1.432,1.432,0,0,1,1.739.716" transform="translate(2.479 0.247)" fill="#fff"/>
      <path id="Path_30" data-name="Path 30" d="M12.274,2.823a1.194,1.194,0,0,1-.586,1.315,1.253,1.253,0,0,1-1.319-.578,1.377,1.377,0,0,1,.36-1.786,1.4,1.4,0,0,1,1.545,1.049" transform="translate(3.494 -0.291)" fill="#fff"/>
      <path id="Path_31" data-name="Path 31" d="M15.477,2.194a1.217,1.217,0,0,1-.849,1.175c-.52.083-1-.428-1.17-.858A1.363,1.363,0,0,1,14.19.857a1.382,1.382,0,0,1,1.287,1.337" transform="translate(4.593 -0.604)" fill="#fff"/>
      <path id="Path_32" data-name="Path 32" d="M18.748,2.237c-.121.466-.549,1.007-1.075.981s-.892-.611-.967-1.084A1.371,1.371,0,0,1,17.768.669a1.373,1.373,0,0,1,.981,1.568" transform="translate(5.73 -0.669)" fill="#fff"/>
      <path id="Path_33" data-name="Path 33" d="M21.935,2.965a1.247,1.247,0,0,1-1.251.72,1.209,1.209,0,0,1-.721-1.252,1.382,1.382,0,0,1,1.346-1.218,1.367,1.367,0,0,1,.626,1.75" transform="translate(6.851 -0.482)" fill="#fff"/>
      <path id="Path_34" data-name="Path 34" d="M24.75,4.243a1.247,1.247,0,0,1-1.369.45,1.206,1.206,0,0,1-.457-1.367A1.392,1.392,0,0,1,24.491,2.4a1.379,1.379,0,0,1,.259,1.846" transform="translate(7.853 -0.079)" fill="#fff"/>
      <path id="Path_35" data-name="Path 35" d="M27.382,6.179a1.2,1.2,0,0,1-1.42.14A1.175,1.175,0,0,1,25.791,4.9a1.418,1.418,0,0,1,1.735-.594,1.411,1.411,0,0,1-.144,1.872" transform="translate(8.799 0.551)" fill="#fff"/>
      <path id="Path_36" data-name="Path 36" d="M29.556,8.618a1.157,1.157,0,0,1-1.413-.165,1.174,1.174,0,0,1,.124-1.417A1.43,1.43,0,0,1,30.1,6.81a1.44,1.44,0,0,1-.539,1.808" transform="translate(9.595 1.362)" fill="#fff"/>
      <path id="Path_37" data-name="Path 37" d="M31.174,11.458a1.186,1.186,0,0,1-1.363-.45,1.238,1.238,0,0,1,.433-1.367,1.384,1.384,0,0,1,1.819.171,1.41,1.41,0,0,1-.888,1.647" transform="translate(10.207 2.32)" fill="#fff"/>
      <path id="Path_38" data-name="Path 38" d="M32.163,14.574a1.211,1.211,0,0,1-1.253-.724,1.249,1.249,0,0,1,.728-1.251,1.363,1.363,0,0,1,1.726.556,1.388,1.388,0,0,1-1.2,1.418" transform="translate(10.601 3.383)" fill="#fff"/>
      <path id="Path_39" data-name="Path 39" d="M32.464,17.831c-.476-.073-1.057-.445-1.084-.97s.518-.95.981-1.072a1.371,1.371,0,0,1,1.564.907,1.373,1.373,0,0,1-1.46,1.135" transform="translate(10.77 4.508)" fill="#fff"/>
      <path id="Path_40" data-name="Path 40" d="M28.8,20.766a1.226,1.226,0,0,1-.8-1.178c.078-.51.693-.8,1.171-.823A1.384,1.384,0,0,1,30.518,20a1.387,1.387,0,0,1-1.715.764" transform="translate(9.609 5.541)" fill="#fff"/>
      <path id="Path_41" data-name="Path 41" d="M27.552,23.774a1.241,1.241,0,0,1-.476-1.357,1.253,1.253,0,0,1,1.351-.481,1.358,1.358,0,0,1,.966,1.545,1.364,1.364,0,0,1-1.842.293" transform="translate(9.269 6.619)" fill="#fff"/>
      <path id="Path_42" data-name="Path 42" d="M25.534,26.352a1.2,1.2,0,0,1-.1-1.429,1.229,1.229,0,0,1,1.42-.118,1.388,1.388,0,0,1,.54,1.753,1.4,1.4,0,0,1-1.862-.206" transform="translate(8.662 7.557)" fill="#fff"/>
      <path id="Path_43" data-name="Path 43" d="M22.912,28.317a1.018,1.018,0,0,1,1.686-1.14,1.415,1.415,0,0,1,.066,1.843,1.42,1.42,0,0,1-1.752-.7" transform="translate(7.829 8.294)" fill="#fff"/>
      <path id="Path_44" data-name="Path 44" d="M19.881,29.531a1.231,1.231,0,0,1,.641-1.273,1.21,1.21,0,0,1,1.289.629,1.377,1.377,0,0,1-.43,1.772,1.382,1.382,0,0,1-1.5-1.127" transform="translate(6.821 8.786)" fill="#fff"/>
      <path id="Path_45" data-name="Path 45" d="M16.646,29.917c.074-.476.439-1.058.954-1.084a1.263,1.263,0,0,1,1.079.946,1.363,1.363,0,0,1-.881,1.6,1.371,1.371,0,0,1-1.151-1.459" transform="translate(5.709 8.998)" fill="#fff"/>
      <path id="Path_46" data-name="Path 46" d="M13.711,29.478a1.226,1.226,0,0,1,1.178-.8c.51.077.8.693.823,1.171a1.383,1.383,0,0,1-1.237,1.343,1.385,1.385,0,0,1-.764-1.714" transform="translate(4.678 8.942)" fill="#fff"/>
      <path id="Path_47" data-name="Path 47" d="M10.709,28.226a1.241,1.241,0,0,1,1.357-.476,1.253,1.253,0,0,1,.481,1.351A1.358,1.358,0,0,1,11,30.067a1.364,1.364,0,0,1-.293-1.842" transform="translate(3.593 8.601)" fill="#fff"/>
      <path id="Path_48" data-name="Path 48" d="M8.147,26.209a1.2,1.2,0,0,1,1.429-.1,1.229,1.229,0,0,1,.118,1.42,1.386,1.386,0,0,1-1.753.539,1.393,1.393,0,0,1,.206-1.86" transform="translate(2.638 7.995)" fill="#fff"/>
      <path id="Path_49" data-name="Path 49" d="M6.214,23.586a1.163,1.163,0,0,1,1.386.291,1.168,1.168,0,0,1-.246,1.394,1.416,1.416,0,0,1-1.843.066,1.42,1.42,0,0,1,.7-1.752" transform="translate(1.869 7.162)" fill="#fff"/>
      <path id="Path_50" data-name="Path 50" d="M5.038,20.555a1.231,1.231,0,0,1,1.273.641,1.21,1.21,0,0,1-.629,1.289,1.379,1.379,0,0,1-1.772-.43,1.382,1.382,0,0,1,1.127-1.5" transform="translate(1.341 6.154)" fill="#fff"/>
      <path id="Path_51" data-name="Path 51" d="M4.677,17.321c.476.074,1.057.439,1.084.954a1.262,1.262,0,0,1-.946,1.079,1.363,1.363,0,0,1-1.6-.881,1.371,1.371,0,0,1,1.459-1.151" transform="translate(1.105 5.042)" fill="#fff"/>
      <path id="Path_52" data-name="Path 52" d="M5.11,14.385a1.226,1.226,0,0,1,.8,1.178c-.077.51-.693.8-1.171.823A1.383,1.383,0,0,1,3.4,15.15a1.385,1.385,0,0,1,1.714-.764" transform="translate(1.166 4.01)" fill="#fff"/>
      <path id="Path_53" data-name="Path 53" d="M6.332,11.383a1.241,1.241,0,0,1,.476,1.357,1.255,1.255,0,0,1-1.351.481,1.358,1.358,0,0,1-.966-1.545,1.364,1.364,0,0,1,1.842-.293" transform="translate(1.537 2.926)" fill="#fff"/>
      <path id="Path_54" data-name="Path 54" d="M8.316,8.822a1.2,1.2,0,0,1,.1,1.429,1.229,1.229,0,0,1-1.42.118,1.386,1.386,0,0,1-.539-1.753,1.393,1.393,0,0,1,1.86.206" transform="translate(2.176 1.971)" fill="#fff"/>
      <path id="Path_55" data-name="Path 55" d="M10.91,6.888a1.163,1.163,0,0,1-.291,1.386,1.168,1.168,0,0,1-1.394-.246,1.416,1.416,0,0,1-.066-1.843,1.42,1.42,0,0,1,1.752.7" transform="translate(3.039 1.202)" fill="#fff"/>
      <path id="Path_56" data-name="Path 56" d="M13.926,5.712a1.231,1.231,0,0,1-.641,1.273A1.21,1.21,0,0,1,12,6.357a1.377,1.377,0,0,1,.43-1.772,1.382,1.382,0,0,1,1.5,1.127" transform="translate(4.06 0.674)" fill="#fff"/>
      <path id="Path_57" data-name="Path 57" d="M17.157,5.351c-.074.476-.439,1.058-.954,1.084a1.263,1.263,0,0,1-1.079-.946,1.363,1.363,0,0,1,.881-1.6,1.371,1.371,0,0,1,1.151,1.459" transform="translate(5.176 0.437)" fill="#fff"/>
      <path id="Path_58" data-name="Path 58" d="M20.092,5.784a1.226,1.226,0,0,1-1.178.8c-.51-.077-.8-.693-.823-1.171A1.383,1.383,0,0,1,19.327,4.07a1.385,1.385,0,0,1,.764,1.714" transform="translate(6.209 0.498)" fill="#fff"/>
      <path id="Path_59" data-name="Path 59" d="M23.1,7.006a1.241,1.241,0,0,1-1.357.476,1.253,1.253,0,0,1-.481-1.351,1.358,1.358,0,0,1,1.545-.966A1.364,1.364,0,0,1,23.1,7.006" transform="translate(7.287 0.869)" fill="#fff"/>
      <path id="Path_60" data-name="Path 60" d="M25.678,8.99a1.2,1.2,0,0,1-1.429.1,1.229,1.229,0,0,1-.118-1.42,1.386,1.386,0,0,1,1.753-.539,1.393,1.393,0,0,1-.206,1.86" transform="translate(8.225 1.509)" fill="#fff"/>
      <path id="Path_61" data-name="Path 61" d="M27.643,11.584a1.163,1.163,0,0,1-1.386-.291A1.168,1.168,0,0,1,26.5,9.9a1.416,1.416,0,0,1,1.843-.066,1.42,1.42,0,0,1-.7,1.752" transform="translate(8.962 2.371)" fill="#fff"/>
      <path id="Path_62" data-name="Path 62" d="M28.857,14.6a1.23,1.23,0,0,1-1.273-.641,1.208,1.208,0,0,1,.629-1.289,1.379,1.379,0,0,1,1.772.43,1.383,1.383,0,0,1-1.127,1.5" transform="translate(9.453 3.392)" fill="#fff"/>
      <path id="Path_63" data-name="Path 63" d="M29.243,17.831c-.476-.074-1.057-.439-1.084-.954A1.262,1.262,0,0,1,29.1,15.8a1.363,1.363,0,0,1,1.6.881,1.371,1.371,0,0,1-1.459,1.151" transform="translate(9.665 4.509)" fill="#fff"/>
      <path id="Path_64" data-name="Path 64" d="M25.5,20.442c-.433-.21-.885-.716-.759-1.2.091-.49.692-.767,1.174-.784a1.379,1.379,0,0,1,1.33,1.276,1.379,1.379,0,0,1-1.745.705" transform="translate(8.486 5.438)" fill="#fff"/>
      <path id="Path_65" data-name="Path 65" d="M23.919,23.269a1.226,1.226,0,0,1-.283-1.386c.254-.428.95-.454,1.385-.312a1.35,1.35,0,0,1,.78,1.656,1.367,1.367,0,0,1-1.882.042" transform="translate(8.072 6.478)" fill="#fff"/>
      <path id="Path_66" data-name="Path 66" d="M21.449,25.388a1.25,1.25,0,0,1,.218-1.4,1.258,1.258,0,0,1,1.405.192,1.35,1.35,0,0,1,.153,1.827,1.357,1.357,0,0,1-1.776-.618" transform="translate(7.322 7.285)" fill="#fff"/>
      <path id="Path_67" data-name="Path 67" d="M18.409,26.516c-.016-.467.215-1.12.7-1.238a1.232,1.232,0,0,1,1.245.669,1.366,1.366,0,0,1-.5,1.77,1.361,1.361,0,0,1-1.441-1.2" transform="translate(6.318 7.769)" fill="#fff"/>
      <path id="Path_68" data-name="Path 68" d="M15.181,26.471a1.226,1.226,0,0,1,1.087-.905c.5.021.85.614.931,1.077a1.352,1.352,0,0,1-1.091,1.467,1.369,1.369,0,0,1-.927-1.639" transform="translate(5.192 7.876)" fill="#fff"/>
      <path id="Path_69" data-name="Path 69" d="M12.18,25.29a1.256,1.256,0,0,1,1.339-.469,1.255,1.255,0,0,1,.493,1.327,1.352,1.352,0,0,1-1.542,1,1.355,1.355,0,0,1-.29-1.856" transform="translate(4.095 7.599)" fill="#fff"/>
      <path id="Path_70" data-name="Path 70" d="M10.161,23.563a1.252,1.252,0,0,1,1.417-.059,1.256,1.256,0,0,1,.085,1.414,1.349,1.349,0,0,1-1.764.505,1.357,1.357,0,0,1,.262-1.86" transform="translate(3.312 7.101)" fill="#fff"/>
      <path id="Path_71" data-name="Path 71" d="M8.5,20.789c.454-.106,1.14-.009,1.351.442a1.226,1.226,0,0,1-.414,1.351,1.366,1.366,0,0,1-1.834-.144,1.362,1.362,0,0,1,.9-1.649" transform="translate(2.601 6.223)" fill="#fff"/>
      <path id="Path_72" data-name="Path 72" d="M7.956,17.612a1.208,1.208,0,0,1,1.095.892c.078.493-.426.95-.873,1.12a1.36,1.36,0,0,1-1.654-.786,1.378,1.378,0,0,1,1.432-1.226" transform="translate(2.239 5.144)" fill="#fff"/>
      <path id="Path_73" data-name="Path 73" d="M8.509,14.437a1.254,1.254,0,0,1,.723,1.221,1.257,1.257,0,0,1-1.2.744,1.351,1.351,0,0,1-1.28-1.316,1.354,1.354,0,0,1,1.762-.649" transform="translate(2.316 4.014)" fill="#fff"/>
      <path id="Path_74" data-name="Path 74" d="M10.121,11.664a1.2,1.2,0,0,1,.244,1.4,1.211,1.211,0,0,1-1.388.274,1.377,1.377,0,0,1-.736-1.688,1.375,1.375,0,0,1,1.879.016" transform="translate(2.81 2.976)" fill="#fff"/>
      <path id="Path_75" data-name="Path 75" d="M12.628,9.668a1.213,1.213,0,0,1-.266,1.389,1.219,1.219,0,0,1-1.4-.24,1.354,1.354,0,0,1-.09-1.827,1.373,1.373,0,0,1,1.757.678" transform="translate(3.626 2.158)" fill="#fff"/>
      <path id="Path_76" data-name="Path 76" d="M15.113,8.79a1.2,1.2,0,0,1-.66,1.248c-.467.173-1.014-.23-1.269-.635a1.36,1.36,0,0,1,.446-1.776A1.377,1.377,0,0,1,15.113,8.79" transform="translate(4.466 1.719)" fill="#fff"/>
      <path id="Path_77" data-name="Path 77" d="M18.335,8.743a1.257,1.257,0,0,1-1.057.947,1.258,1.258,0,0,1-.964-1.04,1.349,1.349,0,0,1,1.042-1.508,1.353,1.353,0,0,1,.979,1.6" transform="translate(5.592 1.553)" fill="#fff"/>
      <path id="Path_78" data-name="Path 78" d="M21.381,9.79a1.2,1.2,0,0,1-1.323.509,1.2,1.2,0,0,1-.539-1.306A1.38,1.38,0,0,1,21.031,7.94a1.38,1.38,0,0,1,.349,1.85" transform="translate(6.693 1.826)" fill="#fff"/>
      <path id="Path_79" data-name="Path 79" d="M23.859,11.849a1.219,1.219,0,0,1-1.414.009,1.231,1.231,0,0,1-.038-1.421A1.352,1.352,0,0,1,24.183,10a1.37,1.37,0,0,1-.324,1.854" transform="translate(7.62 2.48)" fill="#fff"/>
      <path id="Path_80" data-name="Path 80" d="M25.46,14.648a1.249,1.249,0,0,1-1.33-.486,1.26,1.26,0,0,1,.461-1.341,1.349,1.349,0,0,1,1.823.207,1.357,1.357,0,0,1-.954,1.62" transform="translate(8.26 3.411)" fill="#fff"/>
      <path id="Path_81" data-name="Path 81" d="M25.971,17.831c-.476-.075-1.058-.428-1.081-.927a1.221,1.221,0,0,1,.9-1.089,1.37,1.37,0,0,1,1.64.837,1.369,1.369,0,0,1-1.457,1.179" transform="translate(8.542 4.509)" fill="#fff"/>
      <path id="Path_82" data-name="Path 82" d="M22.215,20.239c-.386-.261-.783-.8-.629-1.238.12-.449.751-.67,1.213-.674a1.322,1.322,0,0,1,1.236,1.379,1.328,1.328,0,0,1-1.82.533" transform="translate(7.397 5.391)" fill="#fff"/>
      <path id="Path_83" data-name="Path 83" d="M20.047,22.6a1.272,1.272,0,0,1,.1-1.4,1.283,1.283,0,0,1,1.394.058,1.315,1.315,0,0,1,.337,1.813,1.32,1.32,0,0,1-1.827-.476" transform="translate(6.826 6.317)" fill="#fff"/>
      <path id="Path_84" data-name="Path 84" d="M16.994,23.524c.051-.465.349-1.052.8-1.134.454-.1.944.356,1.163.771a1.32,1.32,0,0,1-.649,1.729,1.332,1.332,0,0,1-1.319-1.366" transform="translate(5.831 6.782)" fill="#fff"/>
      <path id="Path_85" data-name="Path 85" d="M13.933,22.721a1.275,1.275,0,0,1,1.279-.564,1.284,1.284,0,0,1,.6,1.26,1.312,1.312,0,0,1-1.448,1.144,1.321,1.321,0,0,1-.427-1.84" transform="translate(4.708 6.694)" fill="#fff"/>
      <path id="Path_86" data-name="Path 86" d="M11.744,20.414a1.265,1.265,0,0,1,1.379.181,1.271,1.271,0,0,1-.14,1.389,1.318,1.318,0,0,1-1.831.231,1.329,1.329,0,0,1,.591-1.8" transform="translate(3.783 6.068)" fill="#fff"/>
      <path id="Path_87" data-name="Path 87" d="M11.06,17.32c.484.077,1.038.41,1.1.87s-.4.917-.834,1.114a1.316,1.316,0,0,1-1.688-.75A1.323,1.323,0,0,1,11.06,17.32" transform="translate(3.306 5.042)" fill="#fff"/>
      <path id="Path_88" data-name="Path 88" d="M11.688,14.914c.386.261.784.8.629,1.238-.12.449-.751.67-1.213.674a1.32,1.32,0,0,1-1.234-1.379,1.326,1.326,0,0,1,1.819-.533" transform="translate(3.387 4.158)" fill="#fff"/>
      <path id="Path_89" data-name="Path 89" d="M13.786,12.586a1.272,1.272,0,0,1-.1,1.4,1.283,1.283,0,0,1-1.394-.058,1.315,1.315,0,0,1-.337-1.813,1.32,1.32,0,0,1,1.827.476" transform="translate(4.031 3.198)" fill="#fff"/>
      <path id="Path_90" data-name="Path 90" d="M16.81,11.736c-.051.465-.348,1.052-.8,1.134-.453.1-.943-.356-1.163-.771a1.321,1.321,0,0,1,.65-1.729,1.33,1.33,0,0,1,1.318,1.366" transform="translate(5.052 2.661)" fill="#fff"/>
      <path id="Path_91" data-name="Path 91" d="M19.872,12.521a1.276,1.276,0,0,1-1.279.564,1.282,1.282,0,0,1-.6-1.26,1.312,1.312,0,0,1,1.447-1.144,1.321,1.321,0,0,1,.428,1.84" transform="translate(6.176 2.767)" fill="#fff"/>
      <path id="Path_92" data-name="Path 92" d="M22.1,14.76a1.265,1.265,0,0,1-1.379-.181,1.271,1.271,0,0,1,.14-1.389,1.318,1.318,0,0,1,1.831-.231,1.329,1.329,0,0,1-.591,1.8" transform="translate(7.059 3.46)" fill="#fff"/>
      <path id="Path_93" data-name="Path 93" d="M22.856,17.831c-.484-.077-1.038-.41-1.1-.87s.4-.917.834-1.114a1.316,1.316,0,0,1,1.688.75,1.322,1.322,0,0,1-1.427,1.234" transform="translate(7.467 4.508)" fill="#fff"/>
      <path id="Path_94" data-name="Path 94" d="M18.546,19.959a1.436,1.436,0,0,1-.168-1.32c.216-.294.84-.326,1.307-.234a1.217,1.217,0,0,1,.776,1.7,1.229,1.229,0,0,1-1.915-.15" transform="translate(6.272 5.403)" fill="#fff"/>
      <path id="Path_95" data-name="Path 95" d="M15.567,20.187c.262-.408.72-.815,1.083-.771s.686.58.825,1.044a1.218,1.218,0,0,1-1.135,1.487,1.228,1.228,0,0,1-.772-1.76" transform="translate(5.289 5.764)" fill="#fff"/>
      <path id="Path_96" data-name="Path 96" d="M14.055,17.6c.485.039,1.062.251,1.19.591s-.189.877-.531,1.218a1.215,1.215,0,0,1-1.847-.3c-.1-1.018.586-1.562,1.187-1.51" transform="translate(4.413 5.14)" fill="#fff"/>
      <path id="Path_97" data-name="Path 97" d="M15.542,15.059a1.432,1.432,0,0,1,.04,1.33c-.244.273-.868.244-1.324.107a1.218,1.218,0,0,1-.607-1.772,1.229,1.229,0,0,1,1.891.334" transform="translate(4.632 4.057)" fill="#fff"/>
      <path id="Path_98" data-name="Path 98" d="M18.479,15.215c-.3.381-.8.741-1.151.662s-.627-.646-.721-1.116a1.218,1.218,0,0,1,1.273-1.373,1.227,1.227,0,0,1,.6,1.827" transform="translate(5.693 3.697)" fill="#fff"/>
      <path id="Path_99" data-name="Path 99" d="M19.827,17.838c-.48-.085-1.033-.353-1.128-.705s.274-.853.646-1.161a1.217,1.217,0,0,1,1.811.478c0,1.022-.737,1.5-1.328,1.388" transform="translate(6.413 4.503)" fill="#fff"/>
      <path id="Path_100" data-name="Path 100" d="M17.937,17.875A1.171,1.171,0,0,1,16.9,18.909a1.177,1.177,0,0,1-1.033-1.034,1.46,1.46,0,0,1,1-1.515,1.464,1.464,0,0,1,1.071,1.515" transform="translate(5.442 4.717)" fill="#fff"/>
    </g>
  </g>
</svg>
