<svg xmlns="http://www.w3.org/2000/svg" width="234.63" height="29.602" viewBox="0 0 234.63 29.602">
  <g id="sw-house-of-famely-logo" transform="translate(-130.227 -400.672)">
    <path id="Path_1" data-name="Path 1" d="M174.352,410.905a8.825,8.825,0,0,0-6.054,2.32,7.83,7.83,0,0,0-2.6,6.143,7.7,7.7,0,0,0,2.463,5.956,8.3,8.3,0,0,0,5.805,2.258,8.812,8.812,0,0,0,6.08-2.311,7.839,7.839,0,0,0,2.578-6.134,7.718,7.718,0,0,0-2.463-5.974A8.31,8.31,0,0,0,174.352,410.905Zm3.591,13.86a4.624,4.624,0,0,1-3.555,1.7,4.753,4.753,0,0,1-3.912-2.187,9.043,9.043,0,0,1-1.618-5.529,7.306,7.306,0,0,1,1.511-5.014,4.632,4.632,0,0,1,3.555-1.689,4.738,4.738,0,0,1,3.93,2.187,9.123,9.123,0,0,1,1.6,5.53A7.317,7.317,0,0,1,177.943,424.765Z" transform="translate(-12.668 -3.655)" fill="#fefce4"/>
    <path id="Path_2" data-name="Path 2" d="M208.707,424.238V411.1a22.964,22.964,0,0,1-4.978.214v.693c.557.1.963.178,1.218.249a1.388,1.388,0,0,1,1,1.458v9.761a7.693,7.693,0,0,1-5.067,2.01q-3.165,0-3.165-3.538V411.1a23.178,23.178,0,0,1-5,.214v.693c.557.1.963.178,1.218.249a1.388,1.388,0,0,1,1,1.458v8.339q0,5.6,4.694,5.6,3.058,0,6.347-3.129h.391l-.213,2.809h4.943v-.693a3.32,3.32,0,0,1-1.946-.782A2.45,2.45,0,0,1,208.707,424.238Z" transform="translate(-22.322 -3.724)" fill="#fefce4"/>
    <path id="Path_3" data-name="Path 3" d="M235.4,421.083a2.276,2.276,0,0,0-.471-.692q-.329-.348-.534-.561a3.2,3.2,0,0,0-.676-.489q-.47-.276-.676-.4c-.136-.082-.391-.21-.764-.383s-.614-.275-.721-.311-.355-.127-.746-.275-.611-.234-.658-.258a11.08,11.08,0,0,1-2.684-1.405,2.174,2.174,0,0,1-.854-1.8,2.349,2.349,0,0,1,.764-1.8,3.1,3.1,0,0,1,2.187-.711q3.058,0,4.036,3.538h.889l.071-3.253a7.617,7.617,0,0,0-4.552-1.387,6.691,6.691,0,0,0-4.285,1.236,3.916,3.916,0,0,0-1.547,3.209,3.639,3.639,0,0,0,1.288,2.924,12.131,12.131,0,0,0,3.406,1.93q.266.106.9.337t.908.365l.746.364a3.55,3.55,0,0,1,.712.436,3.9,3.9,0,0,1,.489.515,2.137,2.137,0,0,1,.365.667,2.711,2.711,0,0,1,.116.836,2.447,2.447,0,0,1-.933,2.045,3.95,3.95,0,0,1-2.5.729q-3.538,0-4.623-3.68h-.978l.071,3.325a7.214,7.214,0,0,0,2.045.951,9.875,9.875,0,0,0,3.165.489,7.249,7.249,0,0,0,4.641-1.4,4.239,4.239,0,0,0,1.761-3.44,3.63,3.63,0,0,0-.107-.9A5.909,5.909,0,0,0,235.4,421.083Z" transform="translate(-33.519 -3.655)" fill="#fefce4"/>
    <path id="Path_4" data-name="Path 4" d="M254.557,425.5a6.128,6.128,0,0,1-4.828-2.062,7.741,7.741,0,0,1-1.858-5.227H259.3a5.008,5.008,0,0,0-.88-4.828,6.176,6.176,0,0,0-5.4-2.462,7.568,7.568,0,0,0-5.778,2.409,8.542,8.542,0,0,0-2.258,6.081,7.762,7.762,0,0,0,2.4,5.929,8.29,8.29,0,0,0,5.9,2.258,7.47,7.47,0,0,0,3.947-1.023,5.357,5.357,0,0,0,2.347-2.907l-.551-.32A4.931,4.931,0,0,1,254.557,425.5Zm-5.067-12.134a4.289,4.289,0,0,1,3.147-1.343,3.545,3.545,0,0,1,3.183,1.644,4.951,4.951,0,0,1,.818,3.458h-8.73A6.021,6.021,0,0,1,249.489,413.364Z" transform="translate(-40.991 -3.66)" fill="#fefce4"/>
    <path id="Path_5" data-name="Path 5" d="M284,410.905a8.827,8.827,0,0,0-6.055,2.32,7.832,7.832,0,0,0-2.6,6.143,7.7,7.7,0,0,0,2.462,5.956,8.306,8.306,0,0,0,5.805,2.258,8.812,8.812,0,0,0,6.08-2.311,7.837,7.837,0,0,0,2.578-6.134,7.72,7.72,0,0,0-2.462-5.974A8.312,8.312,0,0,0,284,410.905Zm4.009,11.611a7.315,7.315,0,0,1-3.955,3.42,4.624,4.624,0,0,1-3.913-.468,4.756,4.756,0,0,1-2.134-3.94,9.048,9.048,0,0,1,1.592-5.537,7.305,7.305,0,0,1,3.959-3.427,4.633,4.633,0,0,1,3.908.475,4.738,4.738,0,0,1,2.149,3.95A9.115,9.115,0,0,1,288.008,422.516Z" transform="translate(-51.831 -3.655)" fill="#fefce4"/>
    <path id="Path_6" data-name="Path 6" d="M311.171,400.672a6.239,6.239,0,0,0-4.95,2.157,9.22,9.22,0,0,0-1.876,6.232v.1l-2.492.5v.69h2.492v10.906a1.36,1.36,0,0,1-.469,1.139,5.469,5.469,0,0,1-2.022.593v.625h8.557v-.625a3.409,3.409,0,0,1-.4-.032,9.621,9.621,0,0,1-2.281-.489,1.174,1.174,0,0,1-.728-1.211V410.343h3.639a5.19,5.19,0,0,1,.162-1.412l-3.8.289v-2.357a5.916,5.916,0,0,1,.89-3.746,2.664,2.664,0,0,1,2.087-1.05,2.414,2.414,0,0,1,1.626.609,3.548,3.548,0,0,1,1.027,1.524,2.523,2.523,0,0,0,1.141-.778,2.035,2.035,0,0,0,.477-1.227A3.1,3.1,0,0,0,311.171,400.672Z" transform="translate(-61.301)" fill="#fefce4"/>
    <path id="Path_7" data-name="Path 7" d="M360.023,424.938a.943.943,0,0,1-.8-1.04v-7.379q0-5.547-5.067-5.547a13.91,13.91,0,0,0-5.663,1.263q-2.854,1.263-2.853,3.04a1.464,1.464,0,0,0,.436,1.111,1.513,1.513,0,0,0,1.093.418,1.732,1.732,0,0,0,1.414-.747,11.31,11.31,0,0,0,1.307-2.631,1.485,1.485,0,0,1,1.423-1.031,4.734,4.734,0,0,1,3.085.8,3.77,3.77,0,0,1,.933,2.952v.551c-.084.119-.172.234-.267.347s-.184.21-.267.293a1.42,1.42,0,0,1-.383.249c-.172.083-.305.151-.4.205a2.816,2.816,0,0,1-.507.186q-.365.107-.534.16c-.113.036-.32.1-.623.178s-.512.136-.631.16q-1.565.444-2.382.7a19.276,19.276,0,0,0-1.894.728,6.278,6.278,0,0,0-1.608.943,4.079,4.079,0,0,0-.916,1.218,3.577,3.577,0,0,0-.382,1.653,3.45,3.45,0,0,0,1.254,2.845,4.911,4.911,0,0,0,3.191,1.013,9.052,9.052,0,0,0,6.348-2.951,2.986,2.986,0,0,0,.924,2.045,2.8,2.8,0,0,0,2.062.906,9,9,0,0,0,3.627-2.222v-.907A2.765,2.765,0,0,1,360.023,424.938Zm-4.693-1.805a5.214,5.214,0,0,1-4.09,2.312,2.652,2.652,0,0,1-1.893-.676,2.5,2.5,0,0,1-.721-1.92q0-2.294,3.343-3.2l3.361-.942Z" transform="translate(-76.547 -3.679)" fill="#fefce4"/>
    <path id="Path_8" data-name="Path 8" d="M400.918,425.755a1,1,0,0,1-.533-.56,2.811,2.811,0,0,1-.134-.951v-7.859a7.15,7.15,0,0,0-1.058-4.009,3.942,3.942,0,0,0-3.564-1.609q-3.344,0-5.708,3.5h-.249a4.023,4.023,0,0,0-4.338-3.5q-3.253,0-5.867,3.5h-.694l1.067-3.058-.729-.694a14.162,14.162,0,0,1-5.832,2.116v.8a2.7,2.7,0,0,1,1.946.382,2.125,2.125,0,0,1,.454,1.538v8.89a1.867,1.867,0,0,1-.329,1.181,1.463,1.463,0,0,1-.711.534q-.383.117-1.36.294v.871h8.552v-.871a10.278,10.278,0,0,1-1.236-.294,1.53,1.53,0,0,1-.658-.534,1.867,1.867,0,0,1-.329-1.181v-8.766a4.832,4.832,0,0,1,3.823-2.223q2.6,0,2.6,3.379v7.61a2.815,2.815,0,0,1-.134.951,1,1,0,0,1-.534.56,4.119,4.119,0,0,1-.684.275c-.19.054-.54.128-1.049.222v.871h8.623v-.871a12.719,12.719,0,0,1-1.308-.294,1.478,1.478,0,0,1-.692-.534,1.864,1.864,0,0,1-.33-1.181v-8.766a4.971,4.971,0,0,1,3.823-2.223q2.614,0,2.614,3.379v7.61a3.014,3.014,0,0,1-.125.951.967.967,0,0,1-.524.56,4.286,4.286,0,0,1-.676.275q-.276.081-1.04.222v.871h8.677v-.871c-.51-.095-.862-.168-1.059-.222A4.007,4.007,0,0,1,400.918,425.755Z" transform="translate(-86.813 -3.517)" fill="#fefce4"/>
    <path id="Path_9" data-name="Path 9" d="M434.9,416.026a7.449,7.449,0,0,0-1.041-2.481,5.5,5.5,0,0,0-2.285-1.893,7.849,7.849,0,0,0-3.476-.747,8.222,8.222,0,0,0-5.974,2.339,8.107,8.107,0,0,0-2.4,6.08,7.788,7.788,0,0,0,2.436,6,8.646,8.646,0,0,0,6.116,2.258,8.157,8.157,0,0,0,4.187-1.023,5.3,5.3,0,0,0,2.409-2.871l-.658-.427a4.834,4.834,0,0,1-4.232,1.849,5.653,5.653,0,0,1-4.338-1.8,7.369,7.369,0,0,1-1.849-4.747h10.846A3.947,3.947,0,0,0,434.9,416.026Zm-3.939,1.263h-7.2a6.308,6.308,0,0,1,1.254-3.788,3.423,3.423,0,0,1,2.711-1.315,2.86,2.86,0,0,1,2.7,1.582A5.374,5.374,0,0,1,430.962,417.288Z" transform="translate(-103.403 -3.655)" fill="#fefce4"/>
    <path id="Path_10" data-name="Path 10" d="M450.78,422.238a1.416,1.416,0,0,1-.514-1.271V401.308l-.668-.636a14.008,14.008,0,0,1-5.38,1.907v.733a3.383,3.383,0,0,1,1.956.652,1.97,1.97,0,0,1,.489,1.451v15.551a1.525,1.525,0,0,1-.408,1.174,4.727,4.727,0,0,1-2.038.669v.8h8.477v-.8a1.352,1.352,0,0,1-.228-.033A4.518,4.518,0,0,1,450.78,422.238Z" transform="translate(-112.151)" fill="#fefce4"/>
    <path id="Path_11" data-name="Path 11" d="M469.327,412.3a1.562,1.562,0,0,1,.249.035c.3.048.5.078.6.089a3.593,3.593,0,0,1,.489.107,1.137,1.137,0,0,1,.453.2,2.979,2.979,0,0,1,.258.276.506.506,0,0,1,.107.4,1.927,1.927,0,0,1-.169.56l-3.929,9.21-3.893-9.21a1.025,1.025,0,0,1-.036-1.014q.3-.408,1.974-.658v-.871h-8.605v.871a4.789,4.789,0,0,1,1.68.4,2.775,2.775,0,0,1,.881,1.271l5.991,13.832-.391.96a3.128,3.128,0,0,1-2.089,1.92,11.735,11.735,0,0,1-4.1.107v2.489a4.307,4.307,0,0,0,2.436.836,3.512,3.512,0,0,0,2.339-.951,7.392,7.392,0,0,0,1.653-1.965q.561-1.013,1.183-2.436l6.329-14.793a2.911,2.911,0,0,1,.854-1.271,4.489,4.489,0,0,1,1.653-.4v-.871h-5.92Z" transform="translate(-116.655 -3.843)" fill="#fefce4"/>
    <g id="Group_20" data-name="Group 20" transform="translate(360.171 407.576)">
      <path id="Path_12" data-name="Path 12" d="M491.938,412.1a2.341,2.341,0,1,0,.686,1.652A2.254,2.254,0,0,0,491.938,412.1Zm-.177,3.142a2.064,2.064,0,0,1-2.954,0,2.125,2.125,0,0,1,0-2.982,2.061,2.061,0,0,1,2.954,0,2.111,2.111,0,0,1,0,2.982Z" transform="translate(-487.938 -411.412)" fill="#fefce4"/>
      <path id="Path_13" data-name="Path 13" d="M491.824,415.18l-.11-.188q-.251-.408-.427-.463a1.156,1.156,0,0,0,.514-.226.547.547,0,0,0,.208-.449q0-.676-1.122-.675h-1.048v.094c.086.016.147.029.182.039a.184.184,0,0,1,.1.084.362.362,0,0,1,.043.191v1.625a.322.322,0,0,1-.048.19.187.187,0,0,1-.1.078c-.033.01-.093.022-.178.037v.1h1.11v-.1l-.177-.039a.189.189,0,0,1-.1-.075.307.307,0,0,1-.049-.192v-1.688a.153.153,0,0,1,.057-.137.429.429,0,0,1,.225-.04c.411,0,.616.18.616.538s-.235.538-.706.538v.122a.8.8,0,0,1,.3.33l.267.424a.723.723,0,0,0,.652.361.465.465,0,0,0,.157-.024v-.1C492.09,415.522,491.968,415.4,491.824,415.18Z" transform="translate(-488.617 -412.043)" fill="#fefce4"/>
    </g>
    <path id="Path_14" data-name="Path 14" d="M336.368,400.7a7.79,7.79,0,0,0-8.074,8.382v.1l-2.64.5v.7h2.64v10.653a1.506,1.506,0,0,1-.163.73,2.2,2.2,0,0,1-.318.456,1.452,1.452,0,0,1-.6.3q-.446.136-.686.185t-.874.144v.786h10.183v-.786q-1.063-.1-1.518-.184c-.3-.059-.651-.147-1.045-.265a1.477,1.477,0,0,1-.823-.5,1.45,1.45,0,0,1-.232-.857v-9.9h0v-.755h4.036a7.637,7.637,0,0,1,.183-1.561l-4.218.368v-2.693q0-4.295,2.743-4.3,1.749-.015,2.691,2.612a3.942,3.942,0,0,0,1.869-.753,1.844,1.844,0,0,0,.805-1.41Q339.489,400.7,336.368,400.7Z" transform="translate(-69.803 -0.008)" fill="#fefce4"/>
    <path id="Path_15" data-name="Path 15" d="M151.1,402.094a6.576,6.576,0,0,1,2.329-.729v-.693h-9.245v.693a2.279,2.279,0,0,0,.284.071q.978.178,1.217.249a3.665,3.665,0,0,1,.747.382,1.352,1.352,0,0,1,.64.818,5.441,5.441,0,0,1,.134,1.343v4.591H136.467v-4.591a2.694,2.694,0,0,1,.693-2.134,6.576,6.576,0,0,1,2.33-.729v-.693h-9.263v.693c.082.024.183.048.3.071.651.119,1.058.2,1.218.249a3.648,3.648,0,0,1,.746.382,1.318,1.318,0,0,1,.632.818,5.879,5.879,0,0,1,.125,1.343v15.806a2.721,2.721,0,0,1-.694,2.151,6.565,6.565,0,0,1-2.329.729v.693h9.263v-.693c-.084-.024-.184-.047-.3-.071q-.979-.178-1.219-.249a3.692,3.692,0,0,1-.746-.382,1.319,1.319,0,0,1-.631-.827,5.95,5.95,0,0,1-.124-1.351v-9.688h10.739v9.688a2.721,2.721,0,0,1-.694,2.151,6.565,6.565,0,0,1-2.329.729v.693h9.245v-.693a2.619,2.619,0,0,0-.284-.071q-1-.178-1.227-.249a3.983,3.983,0,0,1-.747-.382,1.308,1.308,0,0,1-.64-.827,5.907,5.907,0,0,1-.125-1.351V404.227A2.694,2.694,0,0,1,151.1,402.094Z" transform="translate(0)" fill="#fefce4"/>
  </g>
</svg>
