<svg xmlns="http://www.w3.org/2000/svg" xmlns:xlink="http://www.w3.org/1999/xlink" width="93.54" height="9.31" viewBox="0 0 93.54 9.31">
  <defs>
    <clipPath id="clip-path">
      <rect id="Rectangle_186" data-name="Rectangle 186" width="93.54" height="9.31" transform="translate(0 0)" fill="#fefce4"/>
    </clipPath>
  </defs>
  <g id="Group_218" data-name="Group 218" transform="translate(0 0)">
    <g id="Group_217" data-name="Group 217" clip-path="url(#clip-path)">
      <path id="Path_141" data-name="Path 141" d="M15.094,9.308a2.721,2.721,0,0,1-2.73-1.91l.949-.416a1.753,1.753,0,0,0,1.781,1.39,1.494,1.494,0,0,0,.955-.292.877.877,0,0,0,.371-.709.813.813,0,0,0-.39-.714,2.87,2.87,0,0,0-.943-.391q-.552-.129-1.1-.292A2.068,2.068,0,0,1,13.04,5.4a1.551,1.551,0,0,1-.39-1.106,1.516,1.516,0,0,1,.624-1.26,2.676,2.676,0,0,1,1.677-.482A2.737,2.737,0,0,1,16.5,3a2.07,2.07,0,0,1,.884,1.164l-.923.4a1.387,1.387,0,0,0-.566-.8,1.652,1.652,0,0,0-.968-.306,1.586,1.586,0,0,0-.884.215.684.684,0,0,0-.325.6.638.638,0,0,0,.279.533,1.727,1.727,0,0,0,.7.292c.282.057.587.135.917.234a8.408,8.408,0,0,1,.91.331,1.577,1.577,0,0,1,.695.618,1.943,1.943,0,0,1,.28,1.073,1.735,1.735,0,0,1-.663,1.4,2.653,2.653,0,0,1-1.742.546" fill="#fefce4"/>
      <path id="Path_142" data-name="Path 142" d="M22.764,9.152a3.012,3.012,0,0,1-1.027.155A1.941,1.941,0,0,1,20.326,8.8,2.082,2.082,0,0,1,19.8,7.241V3.627H18.578V2.652H19.8V.663h1.105V2.652H22.66v.975H20.905V7.28a1.041,1.041,0,0,0,.26.767.95.95,0,0,0,.7.259,1.8,1.8,0,0,0,.819-.169Z" fill="#fefce4"/>
      <path id="Path_143" data-name="Path 143" d="M30.148,2.652V9.2H29.043V7.968a2.722,2.722,0,0,1-.936.976,2.44,2.44,0,0,1-1.313.363,2.316,2.316,0,0,1-1.683-.636,2.231,2.231,0,0,1-.657-1.677V2.652h1.1V6.786a1.522,1.522,0,0,0,.4,1.1,1.42,1.42,0,0,0,1.079.422A1.71,1.71,0,0,0,28.5,7.559a3.411,3.411,0,0,0,.54-2.034V2.652Z" fill="#fefce4"/>
      <path id="Path_144" data-name="Path 144" d="M35.192,9.308a2.943,2.943,0,0,1-2.32-.943,3.523,3.523,0,0,1-.839-2.437,3.554,3.554,0,0,1,.832-2.438,2.927,2.927,0,0,1,2.314-.942,2.821,2.821,0,0,1,1.242.286,2.21,2.21,0,0,1,.9.754V0h1.1V9.2h-1.1V8.255a1.708,1.708,0,0,1-.819.754,2.9,2.9,0,0,1-1.313.3M33.749,7.664a2.152,2.152,0,0,0,3.094,0,2.514,2.514,0,0,0,.585-1.736,2.514,2.514,0,0,0-.585-1.736,2.152,2.152,0,0,0-3.094,0,2.514,2.514,0,0,0-.585,1.736,2.514,2.514,0,0,0,.585,1.736" fill="#fefce4"/>
      <path id="Path_145" data-name="Path 145" d="M40.613,0h1.274V1.4H40.613Zm.078,2.653h1.1V9.2h-1.1Z" fill="#fefce4"/>
      <path id="Path_146" data-name="Path 146" d="M49.408,8.352a3.482,3.482,0,0,1-4.791,0,3.322,3.322,0,0,1-.936-2.425A3.319,3.319,0,0,1,44.617,3.5a3.477,3.477,0,0,1,4.791,0,3.307,3.307,0,0,1,.942,2.423,3.31,3.31,0,0,1-.942,2.425m-3.985-.7a2.212,2.212,0,0,0,3.172,0,2.454,2.454,0,0,0,.611-1.723A2.45,2.45,0,0,0,48.6,4.206a2.212,2.212,0,0,0-3.172,0,2.45,2.45,0,0,0-.611,1.721,2.454,2.454,0,0,0,.611,1.723" fill="#fefce4"/>
      <path id="Path_147" data-name="Path 147" d="M3.5,2.181A3.5,3.5,0,1,1,0,5.681a3.5,3.5,0,0,1,3.5-3.5" fill="#fefce4"/>
      <path id="Path_148" data-name="Path 148" d="M57.414,9.206,55.373,2.655h1.65l1.131,4.263,1.314-4.263h1.495l1.312,4.263,1.118-4.263h1.652L63.017,9.206H61.548L60.222,4.929,58.87,9.206Z" fill="#fefce4"/>
      <path id="Path_149" data-name="Path 149" d="M72.1,8.354a3.638,3.638,0,0,1-4.914,0,3.278,3.278,0,0,1-.962-2.424,3.278,3.278,0,0,1,.962-2.424,3.635,3.635,0,0,1,4.914,0,3.27,3.27,0,0,1,.962,2.424A3.27,3.27,0,0,1,72.1,8.354m-3.737-1a1.784,1.784,0,0,0,2.562-.007,2.049,2.049,0,0,0,.487-1.416,2.053,2.053,0,0,0-.487-1.417,1.783,1.783,0,0,0-2.562-.006,2.04,2.04,0,0,0-.487,1.423,2.04,2.04,0,0,0,.487,1.423" fill="#fefce4"/>
      <path id="Path_150" data-name="Path 150" d="M81.177,5.71c0,.26-.008.476-.026.65H76.289a1.847,1.847,0,0,0,.56,1.156A1.641,1.641,0,0,0,78,7.932a1.689,1.689,0,0,0,.962-.26,1.247,1.247,0,0,0,.52-.741l1.534.416A2.51,2.51,0,0,1,79.942,8.79a3.542,3.542,0,0,1-1.963.52A3.084,3.084,0,0,1,75.542,8.3a3.467,3.467,0,0,1-.891-2.372A3.549,3.549,0,0,1,75.5,3.552a2.961,2.961,0,0,1,2.386-1,3.1,3.1,0,0,1,2.423.956,3.181,3.181,0,0,1,.865,2.2m-4.849-.546h3.094a1.553,1.553,0,0,0-.455-.988A1.487,1.487,0,0,0,77.889,3.8a1.51,1.51,0,0,0-1.021.351,1.722,1.722,0,0,0-.54,1.014" fill="#fefce4"/>
      <path id="Path_151" data-name="Path 151" d="M85.336,9.31a2.955,2.955,0,0,1-1.846-.565,2.854,2.854,0,0,1-1.013-1.372l1.338-.545a1.8,1.8,0,0,0,.546.871,1.437,1.437,0,0,0,.975.338,1.171,1.171,0,0,0,.734-.215.644.644,0,0,0,.281-.527.593.593,0,0,0-.371-.533,3.848,3.848,0,0,0-.891-.318,10.629,10.629,0,0,1-1.046-.306,1.99,1.99,0,0,1-.9-.623,1.693,1.693,0,0,1-.371-1.131,1.624,1.624,0,0,1,.637-1.313,2.6,2.6,0,0,1,1.691-.52,3.225,3.225,0,0,1,1.7.442,1.989,1.989,0,0,1,.942,1.157l-1.326.559a1.248,1.248,0,0,0-.494-.7,1.358,1.358,0,0,0-.793-.254,1.1,1.1,0,0,0-.63.163.5.5,0,0,0-.241.435.528.528,0,0,0,.371.481,4.259,4.259,0,0,0,.9.279,9.067,9.067,0,0,1,1.06.293,1.932,1.932,0,0,1,.9.649,1.892,1.892,0,0,1,.371,1.21,1.827,1.827,0,0,1-.7,1.449,2.723,2.723,0,0,1-1.82.591" fill="#fefce4"/>
      <path id="Path_152" data-name="Path 152" d="M93.54,9.141a3.075,3.075,0,0,1-1.054.169,2.413,2.413,0,0,1-1.676-.571,2.138,2.138,0,0,1-.636-1.677V4.033H89.067V2.655h1.107V.731h1.638V2.655h1.65V4.033h-1.65V6.906a1.026,1.026,0,0,0,.226.708.788.788,0,0,0,.617.254,1.7,1.7,0,0,0,.769-.157Z" fill="#fefce4"/>
    </g>
  </g>
</svg>
