<svg xmlns="http://www.w3.org/2000/svg" width="232.435" height="16.863" viewBox="0 0 232.435 16.863">
  <g id="sw-osr-real-estate-logo" transform="translate(-33.748 -113.68)" style="isolation: isolate">
    <path id="Path_16" data-name="Path 16" d="M42.237,113.93h1.914l-8.087,16.363H34.15Z" transform="translate(0 0)" fill="#fff" stroke="#fff" stroke-miterlimit="10" stroke-width="0.5"/>
    <path id="Path_17" data-name="Path 17" d="M50.981,114.09c3.747,0,6.321,2.386,6.321,7.063s-2.628,7.049-6.321,7.049-6.321-2.4-6.321-7.049S47.369,114.09,50.981,114.09Zm3.666,7.076c0-3.437-1.5-5.243-3.68-5.243s-3.639,1.725-3.639,5.243,1.348,5.189,3.639,5.189S54.648,124.549,54.648,121.166Z" transform="translate(3.656 0.056)" fill="#fff" stroke="#fff" stroke-miterlimit="10" stroke-width="0.5"/>
    <path id="Path_18" data-name="Path 18" d="M65.86,118a2.13,2.13,0,0,0-2.332-2.049c-1.456,0-2.318.822-2.318,1.887s.553,1.631,1.968,1.887l2.022.377c2.507.472,3.585,1.752,3.585,3.747,0,2.7-1.887,4.367-5.284,4.367s-5.189-1.523-5.391-4.151H60.7a2.547,2.547,0,0,0,2.79,2.291c1.927,0,2.7-.944,2.7-2.1s-.553-1.631-2.076-1.914l-1.995-.377a3.734,3.734,0,0,1-3.518-3.8c0-2.332,1.806-4.044,4.906-4.044s4.744,1.6,4.852,3.882Z" transform="translate(8.334 0.066)" fill="#fff" stroke="#fff" stroke-miterlimit="10" stroke-width="0.5"/>
    <path id="Path_19" data-name="Path 19" d="M75.56,122.466H73.134v5.391H70.64V114.23h5.2a6.551,6.551,0,0,1,2.7.539,3.518,3.518,0,0,1,2.1,3.41,3.747,3.747,0,0,1-2.777,3.828h0l3.046,5.9h-2.7Zm0-1.806a2.237,2.237,0,0,0,2.547-2.372,2.21,2.21,0,0,0-2.493-2.264h-2.48v4.637Z" transform="translate(12.693 0.104)" fill="#fff" stroke="#fff" stroke-miterlimit="10" stroke-width="0.5"/>
    <path id="Path_20" data-name="Path 20" d="M93.677,122.1H90.644v5.769H89V114.23h4.933a5.7,5.7,0,0,1,2.7.607,3.464,3.464,0,0,1,1.766,3.235,3.6,3.6,0,0,1-2.925,3.761h0l2.965,6.038H96.481Zm.094-1.348a2.467,2.467,0,0,0,2.8-2.7,2.413,2.413,0,0,0-2.7-2.493H90.644V120.7Z" transform="translate(19.08 0.104)" fill="#fff"/>
    <path id="Path_21" data-name="Path 21" d="M100.91,114.23h8.707v1.483h-7.049v4.542h6.551v1.456h-6.483v4.677h7.144v1.483h-8.8Z" transform="translate(23.222 0.104)" fill="#fff"/>
    <path id="Path_22" data-name="Path 22" d="M120.184,123.817h-5.391l-1.415,4.044H111.72l4.852-13.64h1.968l4.893,13.64h-1.9ZM116.9,117.59l-1.7,4.879h4.529l-1.712-4.879c-.283-.822-.539-1.685-.539-1.685h0a11.5,11.5,0,0,0-.62,1.685Z" transform="translate(26.983 0.101)" fill="#fff"/>
    <path id="Path_23" data-name="Path 23" d="M125,114.23h1.658v12.131H133.4v1.483H125Z" transform="translate(31.602 0.104)" fill="#fff"/>
    <path id="Path_24" data-name="Path 24" d="M142.12,114.23h8.721v1.483h-7.063v4.542h6.483v1.456h-6.483v4.677h7.144v1.483h-8.8Z" transform="translate(37.557 0.104)" fill="#fff"/>
    <path id="Path_25" data-name="Path 25" d="M161.219,118.03a2.615,2.615,0,0,0-2.831-2.534c-1.86,0-2.857,1.051-2.857,2.345s.687,1.968,2.291,2.264l1.927.337c2.7.485,3.572,1.793,3.572,3.734,0,2.494-1.685,4.044-4.947,4.044s-4.96-1.7-5.095-4.044h1.725a3.1,3.1,0,0,0,3.4,2.7c2.426,0,3.235-1.186,3.235-2.7,0-1.173-.647-1.995-2.318-2.278l-1.914-.337c-2.7-.5-3.612-1.927-3.612-3.707,0-2.21,1.82-3.814,4.61-3.814s4.394,1.537,4.515,3.855Z" transform="translate(41.439 0.038)" fill="#fff"/>
    <path id="Path_26" data-name="Path 26" d="M175.513,115.686H170.8v12.131h-1.658V115.686H164.42V114.23h11.093Z" transform="translate(45.314 0.104)" fill="#fff"/>
    <path id="Path_27" data-name="Path 27" d="M183.994,123.817H178.6l-1.415,4.044H175.53l4.852-13.64h1.954l4.906,13.64h-1.766Zm-3.289-6.227-1.7,4.879h4.529l-1.712-4.879c-.283-.822-.539-1.685-.539-1.685h0C181.218,115.986,180.975,116.821,180.706,117.59Z" transform="translate(49.179 0.101)" fill="#fff"/>
    <path id="Path_28" data-name="Path 28" d="M198.106,115.686h-4.717v12.131h-1.658V115.686H187V114.23h11.093Z" transform="translate(53.169 0.104)" fill="#fff"/>
    <path id="Path_29" data-name="Path 29" d="M199.72,114.23h8.721v1.483h-7v4.542h6.483v1.456h-6.483v4.677h7.144v1.483h-8.8Z" transform="translate(57.594 0.104)" fill="#fff"/>
  </g>
</svg>
