<svg id="Layer_1" data-name="Layer 1" xmlns="http://www.w3.org/2000/svg" viewBox="0 0 31.65 31.18"><defs><style>.cls-1{fill:#2b261f;}</style></defs><path class="cls-1" d="M16.37.41A16.49,16.49,0,0,0,5,4.75,14.64,14.64,0,0,0,.18,16.23a14.39,14.39,0,0,0,4.6,11.14,15.51,15.51,0,0,0,10.85,4.22A16.47,16.47,0,0,0,27,27.27,14.63,14.63,0,0,0,31.82,15.8a14.44,14.44,0,0,0-4.6-11.17A15.55,15.55,0,0,0,16.37.41Zm7.49,21.71q-3.3,5.22-7.39,6.39a8.66,8.66,0,0,1-7.32-.87q-3.61-2.3-4-7.37a17,17,0,0,1,3-10.35q3.31-5.26,7.4-6.41a8.65,8.65,0,0,1,7.31.89q3.67,2.32,4,7.38A17.11,17.11,0,0,1,23.86,22.12Z" transform="translate(-0.18 -0.41)"/></svg>